<mxfile host="app.diagrams.net" agent="Mozilla/5.0 (Windows NT 10.0; Win64; x64) AppleWebKit/537.36 (KHTML, like Gecko) Chrome/138.0.0.0 Safari/537.36 Edg/138.0.0.0" version="28.0.4" pages="4">
  <diagram id="D5fdHCUBP44BCxnPj5MG" name="第 1 页">
    <mxGraphModel dx="1216" dy="711" grid="1" gridSize="10" guides="1" tooltips="1" connect="1" arrows="1" fold="1" page="1" pageScale="1" pageWidth="827" pageHeight="1169" math="0" shadow="0">
      <root>
        <mxCell id="0" />
        <mxCell id="1" parent="0" />
        <mxCell id="ozTZcd8wMw4q5XNPgLQ0-2" style="edgeStyle=orthogonalEdgeStyle;rounded=0;orthogonalLoop=1;jettySize=auto;html=1;exitX=0.5;exitY=1;exitDx=0;exitDy=0;entryX=0.5;entryY=0;entryDx=0;entryDy=0;fontSize=12;" edge="1" parent="1" source="ozTZcd8wMw4q5XNPgLQ0-3" target="ozTZcd8wMw4q5XNPgLQ0-17">
          <mxGeometry relative="1" as="geometry" />
        </mxCell>
        <mxCell id="ozTZcd8wMw4q5XNPgLQ0-3" value="" style="rounded=0;whiteSpace=wrap;html=1;fontSize=12;" vertex="1" parent="1">
          <mxGeometry x="776" y="50" width="224" height="260" as="geometry" />
        </mxCell>
        <mxCell id="ozTZcd8wMw4q5XNPgLQ0-4" value="" style="edgeStyle=orthogonalEdgeStyle;rounded=0;orthogonalLoop=1;jettySize=auto;html=1;fontSize=12;" edge="1" parent="1" source="ozTZcd8wMw4q5XNPgLQ0-5">
          <mxGeometry relative="1" as="geometry">
            <mxPoint x="770" y="175" as="targetPoint" />
          </mxGeometry>
        </mxCell>
        <mxCell id="ozTZcd8wMw4q5XNPgLQ0-5" value="" style="rounded=0;whiteSpace=wrap;html=1;align=center;fontSize=12;" vertex="1" parent="1">
          <mxGeometry x="420" y="90" width="240" height="170" as="geometry" />
        </mxCell>
        <mxCell id="ozTZcd8wMw4q5XNPgLQ0-6" value="&lt;b&gt;AL&lt;/b&gt;" style="rounded=0;whiteSpace=wrap;html=1;fontSize=16;" vertex="1" parent="1">
          <mxGeometry x="420" y="90" width="60" height="170" as="geometry" />
        </mxCell>
        <mxCell id="ozTZcd8wMw4q5XNPgLQ0-7" style="edgeStyle=orthogonalEdgeStyle;rounded=0;orthogonalLoop=1;jettySize=auto;html=1;exitX=0.5;exitY=1;exitDx=0;exitDy=0;entryX=0.5;entryY=0;entryDx=0;entryDy=0;fontSize=12;" edge="1" parent="1" source="ozTZcd8wMw4q5XNPgLQ0-8" target="ozTZcd8wMw4q5XNPgLQ0-9">
          <mxGeometry relative="1" as="geometry" />
        </mxCell>
        <mxCell id="ozTZcd8wMw4q5XNPgLQ0-8" value="Interface command processing" style="rounded=0;whiteSpace=wrap;html=1;fontSize=14;fontStyle=1" vertex="1" parent="1">
          <mxGeometry x="505" y="100" width="120" height="60" as="geometry" />
        </mxCell>
        <mxCell id="ozTZcd8wMw4q5XNPgLQ0-9" value="&lt;div&gt;Encapsulate log structure&lt;/div&gt;" style="rounded=0;whiteSpace=wrap;html=1;fontSize=14;fontStyle=1" vertex="1" parent="1">
          <mxGeometry x="505" y="190" width="120" height="60" as="geometry" />
        </mxCell>
        <mxCell id="ozTZcd8wMw4q5XNPgLQ0-10" value="" style="edgeStyle=orthogonalEdgeStyle;rounded=0;orthogonalLoop=1;jettySize=auto;html=1;fontSize=12;" edge="1" parent="1" source="ozTZcd8wMw4q5XNPgLQ0-11" target="ozTZcd8wMw4q5XNPgLQ0-13">
          <mxGeometry relative="1" as="geometry" />
        </mxCell>
        <mxCell id="ozTZcd8wMw4q5XNPgLQ0-11" value="Log Filtering" style="rounded=0;whiteSpace=wrap;html=1;fontSize=14;fontStyle=1" vertex="1" parent="1">
          <mxGeometry x="840" y="60" width="120" height="60" as="geometry" />
        </mxCell>
        <mxCell id="ozTZcd8wMw4q5XNPgLQ0-12" value="" style="edgeStyle=orthogonalEdgeStyle;rounded=0;orthogonalLoop=1;jettySize=auto;html=1;fontSize=12;" edge="1" parent="1" source="ozTZcd8wMw4q5XNPgLQ0-13" target="ozTZcd8wMw4q5XNPgLQ0-15">
          <mxGeometry relative="1" as="geometry" />
        </mxCell>
        <mxCell id="ozTZcd8wMw4q5XNPgLQ0-13" value="Buffer Management" style="rounded=0;whiteSpace=wrap;html=1;fontSize=14;fontStyle=1" vertex="1" parent="1">
          <mxGeometry x="840" y="150" width="120" height="60" as="geometry" />
        </mxCell>
        <mxCell id="ozTZcd8wMw4q5XNPgLQ0-14" value="LSL" style="rounded=0;whiteSpace=wrap;html=1;fontSize=16;fontStyle=1" vertex="1" parent="1">
          <mxGeometry x="776" y="50" width="44" height="260" as="geometry" />
        </mxCell>
        <mxCell id="ozTZcd8wMw4q5XNPgLQ0-15" value="Index maps to Flash address" style="rounded=0;whiteSpace=wrap;html=1;fontSize=14;fontStyle=1" vertex="1" parent="1">
          <mxGeometry x="840" y="240" width="120" height="60" as="geometry" />
        </mxCell>
        <mxCell id="ozTZcd8wMw4q5XNPgLQ0-16" style="edgeStyle=orthogonalEdgeStyle;rounded=0;orthogonalLoop=1;jettySize=auto;html=1;entryX=1;entryY=0.5;entryDx=0;entryDy=0;fontSize=12;" edge="1" parent="1" source="ozTZcd8wMw4q5XNPgLQ0-17" target="ozTZcd8wMw4q5XNPgLQ0-28">
          <mxGeometry relative="1" as="geometry" />
        </mxCell>
        <mxCell id="ozTZcd8wMw4q5XNPgLQ0-17" value="" style="rounded=0;whiteSpace=wrap;html=1;fontSize=12;" vertex="1" parent="1">
          <mxGeometry x="764.25" y="360" width="248.75" height="330" as="geometry" />
        </mxCell>
        <mxCell id="ozTZcd8wMw4q5XNPgLQ0-18" value="&lt;div style=&quot;text-align: start;&quot;&gt;&lt;span style=&quot;color: light-dark(rgb(0, 0, 0), rgb(255, 255, 255)); font-size: 16px; background-color: rgb(255, 255, 255);&quot;&gt;&lt;font face=&quot;Inter, -apple-system, BlinkMacSystemFont, Segoe UI, SF Pro SC, SF Pro Display, SF Pro Icons, PingFang SC, Hiragino Sans GB, Microsoft YaHei, Helvetica Neue, Helvetica, Arial, sans-serif&quot;&gt;&lt;b&gt;SML&lt;/b&gt;&lt;/font&gt;&lt;/span&gt;&lt;/div&gt;" style="rounded=0;whiteSpace=wrap;html=1;fontSize=12;" vertex="1" parent="1">
          <mxGeometry x="750" y="360" width="53.5" height="330" as="geometry" />
        </mxCell>
        <mxCell id="ozTZcd8wMw4q5XNPgLQ0-19" style="edgeStyle=orthogonalEdgeStyle;rounded=0;orthogonalLoop=1;jettySize=auto;html=1;exitX=0.5;exitY=1;exitDx=0;exitDy=0;entryX=0.5;entryY=0;entryDx=0;entryDy=0;fontSize=12;" edge="1" parent="1" source="ozTZcd8wMw4q5XNPgLQ0-20" target="ozTZcd8wMw4q5XNPgLQ0-22">
          <mxGeometry relative="1" as="geometry" />
        </mxCell>
        <mxCell id="ozTZcd8wMw4q5XNPgLQ0-20" value="&lt;div&gt;Storage strategy selection&lt;/div&gt;" style="rounded=0;whiteSpace=wrap;html=1;fontSize=14;fontStyle=1" vertex="1" parent="1">
          <mxGeometry x="828" y="370" width="120" height="60" as="geometry" />
        </mxCell>
        <mxCell id="ozTZcd8wMw4q5XNPgLQ0-21" style="edgeStyle=orthogonalEdgeStyle;rounded=0;orthogonalLoop=1;jettySize=auto;html=1;exitX=0.5;exitY=1;exitDx=0;exitDy=0;entryX=0.5;entryY=0;entryDx=0;entryDy=0;fontSize=12;" edge="1" parent="1" source="ozTZcd8wMw4q5XNPgLQ0-22" target="ozTZcd8wMw4q5XNPgLQ0-24">
          <mxGeometry relative="1" as="geometry" />
        </mxCell>
        <mxCell id="ozTZcd8wMw4q5XNPgLQ0-22" value="Erase management&amp;nbsp;" style="rounded=0;whiteSpace=wrap;html=1;fontSize=14;fontStyle=1" vertex="1" parent="1">
          <mxGeometry x="830" y="460" width="120" height="60" as="geometry" />
        </mxCell>
        <mxCell id="ozTZcd8wMw4q5XNPgLQ0-23" value="" style="edgeStyle=orthogonalEdgeStyle;rounded=0;orthogonalLoop=1;jettySize=auto;html=1;fontSize=12;" edge="1" parent="1" source="ozTZcd8wMw4q5XNPgLQ0-24" target="ozTZcd8wMw4q5XNPgLQ0-25">
          <mxGeometry relative="1" as="geometry" />
        </mxCell>
        <mxCell id="ozTZcd8wMw4q5XNPgLQ0-24" value="&lt;div&gt;Metadata management&lt;/div&gt;" style="rounded=0;whiteSpace=wrap;html=1;fontSize=14;fontStyle=1" vertex="1" parent="1">
          <mxGeometry x="830" y="540" width="120" height="60" as="geometry" />
        </mxCell>
        <mxCell id="ozTZcd8wMw4q5XNPgLQ0-25" value="Flash storage" style="rounded=0;whiteSpace=wrap;html=1;fontSize=14;fontStyle=1" vertex="1" parent="1">
          <mxGeometry x="830" y="620" width="120" height="60" as="geometry" />
        </mxCell>
        <mxCell id="ozTZcd8wMw4q5XNPgLQ0-26" style="edgeStyle=orthogonalEdgeStyle;rounded=0;orthogonalLoop=1;jettySize=auto;html=1;exitX=0.5;exitY=1;exitDx=0;exitDy=0;fontSize=12;" edge="1" parent="1" source="ozTZcd8wMw4q5XNPgLQ0-20" target="ozTZcd8wMw4q5XNPgLQ0-20">
          <mxGeometry relative="1" as="geometry" />
        </mxCell>
        <mxCell id="ozTZcd8wMw4q5XNPgLQ0-28" value="&lt;h4 style=&quot;-webkit-font-smoothing: antialiased; box-sizing: border-box; -webkit-tap-highlight-color: rgba(0, 0, 0, 0); font-weight: 700; line-height: 28px; margin-top: 24px; color: rgb(0, 0, 0); overflow-anchor: auto; font-family: Inter, -apple-system, BlinkMacSystemFont, &amp;quot;Segoe UI&amp;quot;, &amp;quot;SF Pro SC&amp;quot;, &amp;quot;SF Pro Display&amp;quot;, &amp;quot;SF Pro Icons&amp;quot;, &amp;quot;PingFang SC&amp;quot;, &amp;quot;Hiragino Sans GB&amp;quot;, &amp;quot;Microsoft YaHei&amp;quot;, &amp;quot;Helvetica Neue&amp;quot;, Helvetica, Arial, sans-serif; font-style: normal; font-variant-ligatures: normal; font-variant-caps: normal; letter-spacing: normal; orphans: 2; text-align: start; text-indent: 0px; text-transform: none; widows: 2; word-spacing: 0px; -webkit-text-stroke-width: 0px; white-space: normal; background-color: rgb(255, 255, 255); text-decoration-thickness: initial; text-decoration-style: initial; text-decoration-color: initial; margin-bottom: 8px !important; padding-bottom: 0px !important;&quot; class=&quot;header-jfw95c auto-hide-last-sibling-br&quot;&gt;&lt;br&gt;&lt;/h4&gt;&lt;div&gt;&lt;br&gt;&lt;/div&gt;" style="rounded=0;whiteSpace=wrap;html=1;fontSize=12;" vertex="1" parent="1">
          <mxGeometry x="420" y="360" width="230" height="330" as="geometry" />
        </mxCell>
        <mxCell id="rgye9tgkzdOHz8LurZpH-1" style="edgeStyle=orthogonalEdgeStyle;rounded=0;orthogonalLoop=1;jettySize=auto;html=1;exitX=0;exitY=0.5;exitDx=0;exitDy=0;entryX=0;entryY=0.5;entryDx=0;entryDy=0;" edge="1" parent="1" source="ozTZcd8wMw4q5XNPgLQ0-29" target="ozTZcd8wMw4q5XNPgLQ0-39">
          <mxGeometry relative="1" as="geometry" />
        </mxCell>
        <mxCell id="ozTZcd8wMw4q5XNPgLQ0-29" value="&lt;span&gt;TPL&lt;/span&gt;" style="rounded=0;whiteSpace=wrap;html=1;fontSize=16;fontStyle=1" vertex="1" parent="1">
          <mxGeometry x="420" y="360" width="60" height="330" as="geometry" />
        </mxCell>
        <mxCell id="ozTZcd8wMw4q5XNPgLQ0-30" value="" style="edgeStyle=orthogonalEdgeStyle;rounded=0;orthogonalLoop=1;jettySize=auto;html=1;fontSize=12;" edge="1" parent="1" source="ozTZcd8wMw4q5XNPgLQ0-31" target="ozTZcd8wMw4q5XNPgLQ0-33">
          <mxGeometry relative="1" as="geometry" />
        </mxCell>
        <mxCell id="ozTZcd8wMw4q5XNPgLQ0-31" value="Log reading" style="rounded=0;whiteSpace=wrap;html=1;fontSize=14;fontStyle=1" vertex="1" parent="1">
          <mxGeometry x="490" y="380" width="120" height="60" as="geometry" />
        </mxCell>
        <mxCell id="ozTZcd8wMw4q5XNPgLQ0-32" value="" style="edgeStyle=orthogonalEdgeStyle;rounded=0;orthogonalLoop=1;jettySize=auto;html=1;fontSize=12;" edge="1" parent="1" source="ozTZcd8wMw4q5XNPgLQ0-33" target="ozTZcd8wMw4q5XNPgLQ0-34">
          <mxGeometry relative="1" as="geometry" />
        </mxCell>
        <mxCell id="ozTZcd8wMw4q5XNPgLQ0-33" value="Upload channel UART, network" style="shape=cylinder3;whiteSpace=wrap;html=1;boundedLbl=1;backgroundOutline=1;size=15;fontSize=14;fontStyle=1" vertex="1" parent="1">
          <mxGeometry x="515" y="480" width="70" height="90" as="geometry" />
        </mxCell>
        <mxCell id="ozTZcd8wMw4q5XNPgLQ0-34" value="&lt;div&gt;Information verification&lt;/div&gt;" style="rounded=0;whiteSpace=wrap;html=1;fontSize=14;fontStyle=1" vertex="1" parent="1">
          <mxGeometry x="490" y="600" width="120" height="80" as="geometry" />
        </mxCell>
        <mxCell id="ozTZcd8wMw4q5XNPgLQ0-35" value="Log structure" style="text;html=1;align=center;verticalAlign=middle;resizable=0;points=[];autosize=1;strokeColor=none;fillColor=none;fontSize=14;fontStyle=1" vertex="1" parent="1">
          <mxGeometry x="665" y="140" width="110" height="30" as="geometry" />
        </mxCell>
        <mxCell id="ozTZcd8wMw4q5XNPgLQ0-36" value="Binary format data" style="text;html=1;align=center;verticalAlign=middle;resizable=0;points=[];autosize=1;strokeColor=none;fillColor=none;fontSize=14;fontStyle=1" vertex="1" parent="1">
          <mxGeometry x="883" y="320" width="140" height="30" as="geometry" />
        </mxCell>
        <mxCell id="ozTZcd8wMw4q5XNPgLQ0-37" value="Flash raw data&amp;nbsp;" style="text;html=1;align=center;verticalAlign=middle;resizable=0;points=[];autosize=1;strokeColor=none;fillColor=none;fontSize=14;fontStyle=1" vertex="1" parent="1">
          <mxGeometry x="645" y="495" width="120" height="30" as="geometry" />
        </mxCell>
        <mxCell id="ozTZcd8wMw4q5XNPgLQ0-38" value="Log data" style="text;html=1;align=center;verticalAlign=middle;resizable=0;points=[];autosize=1;strokeColor=none;fillColor=none;fontSize=14;fontStyle=1" vertex="1" parent="1">
          <mxGeometry x="390" y="270" width="80" height="30" as="geometry" />
        </mxCell>
        <mxCell id="ozTZcd8wMw4q5XNPgLQ0-39" value="&lt;div&gt;Host computer&lt;/div&gt;" style="rounded=0;whiteSpace=wrap;html=1;fontSize=14;fontStyle=1" vertex="1" parent="1">
          <mxGeometry x="480" y="280" width="120" height="60" as="geometry" />
        </mxCell>
      </root>
    </mxGraphModel>
  </diagram>
  <diagram name="第 2 页" id="dMMT0xX2KY-Gnt4gtdnx">
    <mxGraphModel dx="522" dy="560" grid="1" gridSize="10" guides="1" tooltips="1" connect="1" arrows="1" fold="1" page="1" pageScale="1" pageWidth="827" pageHeight="1169" math="0" shadow="0">
      <root>
        <mxCell id="0" />
        <mxCell id="1" parent="0" />
        <mxCell id="k0V2MmPSUKnZjy8tlo2Y-7" style="edgeStyle=orthogonalEdgeStyle;rounded=0;orthogonalLoop=1;jettySize=auto;html=1;exitX=0.5;exitY=1;exitDx=0;exitDy=0;entryX=0.5;entryY=0;entryDx=0;entryDy=0;strokeColor=default;endArrow=none;endFill=0;fontSize=15;fontStyle=1" edge="1" parent="1" source="k0V2MmPSUKnZjy8tlo2Y-1" target="k0V2MmPSUKnZjy8tlo2Y-4">
          <mxGeometry relative="1" as="geometry">
            <Array as="points">
              <mxPoint x="100" y="800" />
              <mxPoint x="100" y="800" />
            </Array>
          </mxGeometry>
        </mxCell>
        <mxCell id="k0V2MmPSUKnZjy8tlo2Y-1" value="Main Loop" style="rounded=0;whiteSpace=wrap;html=1;fontSize=15;fontStyle=1" vertex="1" parent="1">
          <mxGeometry x="40" y="440" width="120" height="60" as="geometry" />
        </mxCell>
        <mxCell id="k0V2MmPSUKnZjy8tlo2Y-18" style="edgeStyle=orthogonalEdgeStyle;rounded=0;orthogonalLoop=1;jettySize=auto;html=1;exitX=0.5;exitY=1;exitDx=0;exitDy=0;entryX=0.5;entryY=0;entryDx=0;entryDy=0;endArrow=none;endFill=0;fontSize=15;fontStyle=1" edge="1" parent="1" source="k0V2MmPSUKnZjy8tlo2Y-2" target="k0V2MmPSUKnZjy8tlo2Y-5">
          <mxGeometry relative="1" as="geometry" />
        </mxCell>
        <mxCell id="k0V2MmPSUKnZjy8tlo2Y-2" value="QSPI Flash" style="rounded=0;whiteSpace=wrap;html=1;fontSize=15;fontStyle=1" vertex="1" parent="1">
          <mxGeometry x="280" y="440" width="120" height="60" as="geometry" />
        </mxCell>
        <mxCell id="k0V2MmPSUKnZjy8tlo2Y-19" style="edgeStyle=orthogonalEdgeStyle;rounded=0;orthogonalLoop=1;jettySize=auto;html=1;exitX=0.5;exitY=1;exitDx=0;exitDy=0;entryX=0.5;entryY=0;entryDx=0;entryDy=0;endArrow=none;endFill=0;fontSize=15;fontStyle=1" edge="1" parent="1" source="k0V2MmPSUKnZjy8tlo2Y-3" target="k0V2MmPSUKnZjy8tlo2Y-6">
          <mxGeometry relative="1" as="geometry" />
        </mxCell>
        <mxCell id="k0V2MmPSUKnZjy8tlo2Y-3" value="Interrupt" style="rounded=0;whiteSpace=wrap;html=1;fontSize=15;fontStyle=1" vertex="1" parent="1">
          <mxGeometry x="520" y="440" width="120" height="60" as="geometry" />
        </mxCell>
        <mxCell id="k0V2MmPSUKnZjy8tlo2Y-4" value="Main Loop" style="rounded=0;whiteSpace=wrap;html=1;fontSize=15;fontStyle=1" vertex="1" parent="1">
          <mxGeometry x="40" y="940" width="120" height="60" as="geometry" />
        </mxCell>
        <mxCell id="k0V2MmPSUKnZjy8tlo2Y-5" value="QSPI Flash" style="rounded=0;whiteSpace=wrap;html=1;fontSize=15;fontStyle=1" vertex="1" parent="1">
          <mxGeometry x="280" y="940" width="120" height="60" as="geometry" />
        </mxCell>
        <mxCell id="k0V2MmPSUKnZjy8tlo2Y-6" value="interrupt" style="rounded=0;whiteSpace=wrap;html=1;fontSize=15;fontStyle=1" vertex="1" parent="1">
          <mxGeometry x="520" y="940" width="120" height="60" as="geometry" />
        </mxCell>
        <mxCell id="k0V2MmPSUKnZjy8tlo2Y-10" value="" style="endArrow=classic;html=1;rounded=0;fontSize=15;fontStyle=1" edge="1" parent="1">
          <mxGeometry width="50" height="50" relative="1" as="geometry">
            <mxPoint x="100" y="540" as="sourcePoint" />
            <mxPoint x="340" y="540" as="targetPoint" />
          </mxGeometry>
        </mxCell>
        <mxCell id="k0V2MmPSUKnZjy8tlo2Y-11" value="Erase Commad （Blocking）" style="text;html=1;align=center;verticalAlign=middle;whiteSpace=wrap;rounded=0;fontSize=15;fontStyle=1" vertex="1" parent="1">
          <mxGeometry x="130" y="510" width="200" height="30" as="geometry" />
        </mxCell>
        <mxCell id="k0V2MmPSUKnZjy8tlo2Y-12" value="" style="endArrow=classic;html=1;rounded=0;dashed=1;fontSize=15;fontStyle=1" edge="1" parent="1">
          <mxGeometry width="50" height="50" relative="1" as="geometry">
            <mxPoint x="340" y="580" as="sourcePoint" />
            <mxPoint x="100" y="580" as="targetPoint" />
          </mxGeometry>
        </mxCell>
        <mxCell id="k0V2MmPSUKnZjy8tlo2Y-13" value="Wait（Busy）" style="text;html=1;align=center;verticalAlign=middle;whiteSpace=wrap;rounded=0;fontSize=15;fontStyle=1" vertex="1" parent="1">
          <mxGeometry x="112" y="555" width="200" height="30" as="geometry" />
        </mxCell>
        <mxCell id="k0V2MmPSUKnZjy8tlo2Y-14" value="" style="endArrow=classic;html=1;rounded=0;dashed=1;fontSize=15;fontStyle=1" edge="1" parent="1">
          <mxGeometry width="50" height="50" relative="1" as="geometry">
            <mxPoint x="340" y="622" as="sourcePoint" />
            <mxPoint x="100" y="622" as="targetPoint" />
          </mxGeometry>
        </mxCell>
        <mxCell id="k0V2MmPSUKnZjy8tlo2Y-15" value="Erase Complete" style="text;html=1;align=center;verticalAlign=middle;whiteSpace=wrap;rounded=0;fontSize=15;fontStyle=1" vertex="1" parent="1">
          <mxGeometry x="112" y="597" width="200" height="30" as="geometry" />
        </mxCell>
        <mxCell id="k0V2MmPSUKnZjy8tlo2Y-16" value="" style="endArrow=classic;html=1;rounded=0;fontSize=15;fontStyle=1" edge="1" parent="1">
          <mxGeometry width="50" height="50" relative="1" as="geometry">
            <mxPoint x="100" y="660" as="sourcePoint" />
            <mxPoint x="340" y="660" as="targetPoint" />
          </mxGeometry>
        </mxCell>
        <mxCell id="k0V2MmPSUKnZjy8tlo2Y-17" value="Next Operation" style="text;html=1;align=center;verticalAlign=middle;whiteSpace=wrap;rounded=0;fontSize=15;fontStyle=1" vertex="1" parent="1">
          <mxGeometry x="118" y="633" width="200" height="30" as="geometry" />
        </mxCell>
        <mxCell id="k0V2MmPSUKnZjy8tlo2Y-20" value="Erase Commad （Non-blocking）" style="text;html=1;align=center;verticalAlign=middle;whiteSpace=wrap;rounded=0;fontSize=15;fontStyle=1" vertex="1" parent="1">
          <mxGeometry x="110" y="690" width="234" height="30" as="geometry" />
        </mxCell>
        <mxCell id="k0V2MmPSUKnZjy8tlo2Y-21" value="" style="endArrow=classic;html=1;rounded=0;fontSize=15;fontStyle=1" edge="1" parent="1">
          <mxGeometry width="50" height="50" relative="1" as="geometry">
            <mxPoint x="99" y="720" as="sourcePoint" />
            <mxPoint x="339" y="720" as="targetPoint" />
          </mxGeometry>
        </mxCell>
        <mxCell id="k0V2MmPSUKnZjy8tlo2Y-22" value="" style="endArrow=classic;html=1;rounded=0;dashed=1;fontSize=15;fontStyle=1" edge="1" parent="1">
          <mxGeometry width="50" height="50" relative="1" as="geometry">
            <mxPoint x="339" y="760" as="sourcePoint" />
            <mxPoint x="99" y="760" as="targetPoint" />
          </mxGeometry>
        </mxCell>
        <mxCell id="k0V2MmPSUKnZjy8tlo2Y-23" value="Return Immediately(Busy)" style="text;html=1;align=center;verticalAlign=middle;whiteSpace=wrap;rounded=0;fontSize=15;fontStyle=1" vertex="1" parent="1">
          <mxGeometry x="110" y="730" width="200" height="30" as="geometry" />
        </mxCell>
        <mxCell id="k0V2MmPSUKnZjy8tlo2Y-28" value="" style="endArrow=classic;html=1;rounded=0;edgeStyle=elbowEdgeStyle;fontSize=15;fontStyle=1" edge="1" parent="1">
          <mxGeometry width="50" height="50" relative="1" as="geometry">
            <mxPoint x="100" y="800" as="sourcePoint" />
            <mxPoint x="100" y="835" as="targetPoint" />
            <Array as="points">
              <mxPoint x="150" y="795" />
            </Array>
          </mxGeometry>
        </mxCell>
        <mxCell id="k0V2MmPSUKnZjy8tlo2Y-29" value="Continue executing the main loop/other tasks" style="text;html=1;align=center;verticalAlign=middle;whiteSpace=wrap;rounded=0;fontSize=15;fontStyle=1" vertex="1" parent="1">
          <mxGeometry x="134" y="780" width="200" height="30" as="geometry" />
        </mxCell>
        <mxCell id="k0V2MmPSUKnZjy8tlo2Y-30" value="" style="endArrow=classic;html=1;rounded=0;dashed=1;fontSize=15;fontStyle=1" edge="1" parent="1">
          <mxGeometry width="50" height="50" relative="1" as="geometry">
            <mxPoint x="340" y="850" as="sourcePoint" />
            <mxPoint x="580" y="850" as="targetPoint" />
          </mxGeometry>
        </mxCell>
        <mxCell id="k0V2MmPSUKnZjy8tlo2Y-31" value="Erase Complete Interrupt" style="text;html=1;align=center;verticalAlign=middle;whiteSpace=wrap;rounded=0;fontSize=15;fontStyle=1" vertex="1" parent="1">
          <mxGeometry x="360" y="820" width="200" height="30" as="geometry" />
        </mxCell>
        <mxCell id="k0V2MmPSUKnZjy8tlo2Y-32" value="" style="endArrow=classic;html=1;rounded=0;fontSize=15;fontStyle=1" edge="1" parent="1">
          <mxGeometry width="50" height="50" relative="1" as="geometry">
            <mxPoint x="580" y="890" as="sourcePoint" />
            <mxPoint x="100" y="890" as="targetPoint" />
          </mxGeometry>
        </mxCell>
        <mxCell id="k0V2MmPSUKnZjy8tlo2Y-33" value="&lt;div style=&quot;text-align: center;&quot;&gt;&lt;span style=&quot;background-color: transparent;&quot;&gt;Notify erasure completion&lt;/span&gt;&lt;/div&gt;" style="text;whiteSpace=wrap;html=1;fontSize=15;fontStyle=1" vertex="1" parent="1">
          <mxGeometry x="262" y="865" width="228" height="40" as="geometry" />
        </mxCell>
        <mxCell id="k0V2MmPSUKnZjy8tlo2Y-34" value="Next Operation" style="text;html=1;align=center;verticalAlign=middle;whiteSpace=wrap;rounded=0;fontSize=15;fontStyle=1" vertex="1" parent="1">
          <mxGeometry x="100" y="890" width="200" height="30" as="geometry" />
        </mxCell>
        <mxCell id="k0V2MmPSUKnZjy8tlo2Y-35" value="" style="endArrow=classic;html=1;rounded=0;fontSize=15;fontStyle=1" edge="1" parent="1">
          <mxGeometry width="50" height="50" relative="1" as="geometry">
            <mxPoint x="100" y="920" as="sourcePoint" />
            <mxPoint x="340" y="920" as="targetPoint" />
          </mxGeometry>
        </mxCell>
      </root>
    </mxGraphModel>
  </diagram>
  <diagram id="irwjISab17SqeOpklQ5I" name="第 3 页">
    <mxGraphModel dx="1819" dy="863" grid="1" gridSize="10" guides="1" tooltips="1" connect="1" arrows="1" fold="1" page="1" pageScale="1" pageWidth="827" pageHeight="1169" math="0" shadow="0">
      <root>
        <mxCell id="0" />
        <mxCell id="1" parent="0" />
        <mxCell id="sje2jaHQRD8Xcxvx2MRO-1" value="Application Layer" style="rounded=0;whiteSpace=wrap;html=1;fontStyle=1;fontSize=15;" vertex="1" parent="1">
          <mxGeometry x="10" y="160" width="120" height="40" as="geometry" />
        </mxCell>
        <mxCell id="sje2jaHQRD8Xcxvx2MRO-2" value="Storage Management Layer" style="rounded=0;whiteSpace=wrap;html=1;fontStyle=1;fontSize=13;" vertex="1" parent="1">
          <mxGeometry x="10" y="320" width="120" height="40" as="geometry" />
        </mxCell>
        <mxCell id="sje2jaHQRD8Xcxvx2MRO-3" value="&lt;div style=&quot;background-color: rgb(255, 255, 255); font-family: Consolas, &amp;quot;Courier New&amp;quot;, monospace; line-height: 24px; white-space: pre;&quot;&gt;&lt;br&gt;&lt;/div&gt;" style="rounded=0;whiteSpace=wrap;html=1;fontStyle=1;fontSize=16;" vertex="1" parent="1">
          <mxGeometry x="250" y="120" width="720" height="320" as="geometry" />
        </mxCell>
        <mxCell id="sje2jaHQRD8Xcxvx2MRO-4" style="edgeStyle=none;curved=1;rounded=0;orthogonalLoop=1;jettySize=auto;html=1;exitX=1;exitY=0.5;exitDx=0;exitDy=0;entryX=0;entryY=0.5;entryDx=0;entryDy=0;fontSize=12;startSize=8;endSize=8;fontStyle=1" edge="1" parent="1" source="sje2jaHQRD8Xcxvx2MRO-1" target="sje2jaHQRD8Xcxvx2MRO-8">
          <mxGeometry relative="1" as="geometry" />
        </mxCell>
        <mxCell id="sje2jaHQRD8Xcxvx2MRO-6" style="edgeStyle=none;curved=1;rounded=0;orthogonalLoop=1;jettySize=auto;html=1;exitX=1;exitY=0.5;exitDx=0;exitDy=0;entryX=0;entryY=0.5;entryDx=0;entryDy=0;fontSize=12;startSize=8;endSize=8;fontStyle=1" edge="1" parent="1" source="sje2jaHQRD8Xcxvx2MRO-2" target="sje2jaHQRD8Xcxvx2MRO-9">
          <mxGeometry relative="1" as="geometry" />
        </mxCell>
        <mxCell id="sje2jaHQRD8Xcxvx2MRO-8" value="write_index (production pointer)" style="rounded=0;whiteSpace=wrap;html=1;fontStyle=1;fontSize=16;" vertex="1" parent="1">
          <mxGeometry x="280" y="150" width="120" height="60" as="geometry" />
        </mxCell>
        <mxCell id="sje2jaHQRD8Xcxvx2MRO-9" value="read_index (consumption pointer)" style="rounded=0;whiteSpace=wrap;html=1;fontStyle=1;fontSize=16;" vertex="1" parent="1">
          <mxGeometry x="280" y="310" width="120" height="60" as="geometry" />
        </mxCell>
        <mxCell id="sje2jaHQRD8Xcxvx2MRO-10" style="edgeStyle=none;curved=1;rounded=0;orthogonalLoop=1;jettySize=auto;html=1;exitX=1;exitY=0.5;exitDx=0;exitDy=0;entryX=0;entryY=0.5;entryDx=0;entryDy=0;fontSize=12;startSize=8;endSize=8;fontStyle=1" edge="1" parent="1" source="sje2jaHQRD8Xcxvx2MRO-11" target="sje2jaHQRD8Xcxvx2MRO-12">
          <mxGeometry relative="1" as="geometry" />
        </mxCell>
        <mxCell id="sje2jaHQRD8Xcxvx2MRO-11" value="" style="rounded=0;whiteSpace=wrap;html=1;fontStyle=1" vertex="1" parent="1">
          <mxGeometry x="450" y="155" width="60" height="210" as="geometry" />
        </mxCell>
        <mxCell id="sje2jaHQRD8Xcxvx2MRO-12" value="" style="rounded=0;whiteSpace=wrap;html=1;fontStyle=1" vertex="1" parent="1">
          <mxGeometry x="560" y="170" width="380" height="180" as="geometry" />
        </mxCell>
        <mxCell id="sje2jaHQRD8Xcxvx2MRO-13" value="&lt;div style=&quot;background-color: rgb(255, 255, 255); font-family: Consolas, &amp;quot;Courier New&amp;quot;, monospace; line-height: 24px; white-space: pre;&quot;&gt;LogBuffer&lt;/div&gt;" style="text;html=1;align=center;verticalAlign=middle;whiteSpace=wrap;rounded=0;fontStyle=1;fontSize=19;" vertex="1" parent="1">
          <mxGeometry x="270" y="410" width="60" height="30" as="geometry" />
        </mxCell>
        <mxCell id="sje2jaHQRD8Xcxvx2MRO-14" style="edgeStyle=none;curved=1;rounded=0;orthogonalLoop=1;jettySize=auto;html=1;exitX=1;exitY=0.5;exitDx=0;exitDy=0;entryX=-0.005;entryY=0.121;entryDx=0;entryDy=0;entryPerimeter=0;fontSize=12;startSize=8;endSize=8;fontStyle=1" edge="1" parent="1" source="sje2jaHQRD8Xcxvx2MRO-8" target="sje2jaHQRD8Xcxvx2MRO-11">
          <mxGeometry relative="1" as="geometry" />
        </mxCell>
        <mxCell id="sje2jaHQRD8Xcxvx2MRO-15" style="edgeStyle=none;curved=1;rounded=0;orthogonalLoop=1;jettySize=auto;html=1;exitX=1;exitY=0.5;exitDx=0;exitDy=0;fontSize=12;startSize=8;endSize=8;entryX=0;entryY=0.5;entryDx=0;entryDy=0;fontStyle=1" edge="1" parent="1" source="sje2jaHQRD8Xcxvx2MRO-9" target="sje2jaHQRD8Xcxvx2MRO-17">
          <mxGeometry relative="1" as="geometry">
            <mxPoint x="440" y="340" as="targetPoint" />
          </mxGeometry>
        </mxCell>
        <mxCell id="sje2jaHQRD8Xcxvx2MRO-16" value="count++" style="text;html=1;align=center;verticalAlign=middle;whiteSpace=wrap;rounded=0;fontStyle=1;fontSize=15;" vertex="1" parent="1">
          <mxGeometry x="450" y="170" width="60" height="30" as="geometry" />
        </mxCell>
        <mxCell id="sje2jaHQRD8Xcxvx2MRO-17" value="count--" style="text;html=1;align=center;verticalAlign=middle;whiteSpace=wrap;rounded=0;fontStyle=1;fontSize=15;" vertex="1" parent="1">
          <mxGeometry x="450" y="325" width="60" height="30" as="geometry" />
        </mxCell>
        <mxCell id="sje2jaHQRD8Xcxvx2MRO-18" value="Entry &lt;br&gt;0" style="rounded=0;whiteSpace=wrap;html=1;fontStyle=1;fontSize=16;" vertex="1" parent="1">
          <mxGeometry x="590" y="200" width="40" height="120" as="geometry" />
        </mxCell>
        <mxCell id="sje2jaHQRD8Xcxvx2MRO-19" value="Entry 1" style="rounded=0;whiteSpace=wrap;html=1;fontStyle=1;fontSize=16;" vertex="1" parent="1">
          <mxGeometry x="670" y="200" width="40" height="120" as="geometry" />
        </mxCell>
        <mxCell id="sje2jaHQRD8Xcxvx2MRO-20" value="Entry 2" style="rounded=0;whiteSpace=wrap;html=1;fontStyle=1;fontSize=16;" vertex="1" parent="1">
          <mxGeometry x="740" y="200" width="40" height="120" as="geometry" />
        </mxCell>
        <mxCell id="sje2jaHQRD8Xcxvx2MRO-24" value="&lt;span&gt;...&lt;/span&gt;" style="rounded=0;whiteSpace=wrap;html=1;fontStyle=1;fontSize=16;" vertex="1" parent="1">
          <mxGeometry x="810" y="200" width="40" height="120" as="geometry" />
        </mxCell>
        <mxCell id="sje2jaHQRD8Xcxvx2MRO-25" value="Entry 10" style="rounded=0;whiteSpace=wrap;html=1;fontStyle=1;fontSize=16;" vertex="1" parent="1">
          <mxGeometry x="880" y="200" width="40" height="120" as="geometry" />
        </mxCell>
        <mxCell id="sje2jaHQRD8Xcxvx2MRO-27" value="is_full(0/1)" style="rounded=0;whiteSpace=wrap;html=1;fontStyle=1;fontSize=16;" vertex="1" parent="1">
          <mxGeometry x="630" y="370" width="200" height="45" as="geometry" />
        </mxCell>
        <mxCell id="sje2jaHQRD8Xcxvx2MRO-30" value="Memcpy Log" style="text;html=1;align=center;verticalAlign=middle;whiteSpace=wrap;rounded=0;fontStyle=1;fontSize=18;" vertex="1" parent="1">
          <mxGeometry x="130" y="155" width="120" height="30" as="geometry" />
        </mxCell>
        <mxCell id="sje2jaHQRD8Xcxvx2MRO-31" value="Read Log" style="text;html=1;align=center;verticalAlign=middle;whiteSpace=wrap;rounded=0;fontStyle=1;fontSize=18;" vertex="1" parent="1">
          <mxGeometry x="130" y="315" width="120" height="30" as="geometry" />
        </mxCell>
        <mxCell id="sje2jaHQRD8Xcxvx2MRO-32" value="Application Layer" style="rounded=0;whiteSpace=wrap;html=1;" vertex="1" parent="1">
          <mxGeometry x="70" y="665" width="120" height="40" as="geometry" />
        </mxCell>
        <mxCell id="sje2jaHQRD8Xcxvx2MRO-33" value="Storage Management Layer" style="rounded=0;whiteSpace=wrap;html=1;" vertex="1" parent="1">
          <mxGeometry x="70" y="799" width="120" height="40" as="geometry" />
        </mxCell>
        <mxCell id="sje2jaHQRD8Xcxvx2MRO-34" value="&lt;div style=&quot;background-color: rgb(255, 255, 255); font-family: Consolas, &amp;quot;Courier New&amp;quot;, monospace; font-size: 18px; line-height: 24px; white-space: pre;&quot;&gt;&lt;br&gt;&lt;/div&gt;" style="rounded=0;whiteSpace=wrap;html=1;" vertex="1" parent="1">
          <mxGeometry x="310" y="640" width="820" height="310" as="geometry" />
        </mxCell>
        <mxCell id="sje2jaHQRD8Xcxvx2MRO-35" style="edgeStyle=none;curved=1;rounded=0;orthogonalLoop=1;jettySize=auto;html=1;exitX=1;exitY=0.5;exitDx=0;exitDy=0;entryX=0;entryY=0.5;entryDx=0;entryDy=0;fontSize=12;startSize=8;endSize=8;" edge="1" parent="1" source="sje2jaHQRD8Xcxvx2MRO-32" target="sje2jaHQRD8Xcxvx2MRO-37">
          <mxGeometry relative="1" as="geometry" />
        </mxCell>
        <mxCell id="sje2jaHQRD8Xcxvx2MRO-37" value="write_index (production pointer)" style="rounded=0;whiteSpace=wrap;html=1;" vertex="1" parent="1">
          <mxGeometry x="340" y="655" width="120" height="60" as="geometry" />
        </mxCell>
        <mxCell id="sje2jaHQRD8Xcxvx2MRO-66" style="edgeStyle=orthogonalEdgeStyle;rounded=0;orthogonalLoop=1;jettySize=auto;html=1;exitX=0;exitY=0.5;exitDx=0;exitDy=0;entryX=1;entryY=0.5;entryDx=0;entryDy=0;" edge="1" parent="1" source="sje2jaHQRD8Xcxvx2MRO-38" target="sje2jaHQRD8Xcxvx2MRO-33">
          <mxGeometry relative="1" as="geometry" />
        </mxCell>
        <mxCell id="sje2jaHQRD8Xcxvx2MRO-38" value="read_index (consumption pointer)" style="rounded=0;whiteSpace=wrap;html=1;" vertex="1" parent="1">
          <mxGeometry x="340" y="788" width="120" height="60" as="geometry" />
        </mxCell>
        <mxCell id="sje2jaHQRD8Xcxvx2MRO-39" style="edgeStyle=none;curved=1;rounded=0;orthogonalLoop=1;jettySize=auto;html=1;exitX=1;exitY=0.5;exitDx=0;exitDy=0;entryX=0;entryY=0.5;entryDx=0;entryDy=0;fontSize=12;startSize=8;endSize=8;" edge="1" parent="1" source="sje2jaHQRD8Xcxvx2MRO-40" target="sje2jaHQRD8Xcxvx2MRO-41">
          <mxGeometry relative="1" as="geometry" />
        </mxCell>
        <mxCell id="sje2jaHQRD8Xcxvx2MRO-71" style="edgeStyle=orthogonalEdgeStyle;rounded=0;orthogonalLoop=1;jettySize=auto;html=1;exitX=0;exitY=0.75;exitDx=0;exitDy=0;entryX=1;entryY=0.5;entryDx=0;entryDy=0;" edge="1" parent="1" source="sje2jaHQRD8Xcxvx2MRO-40" target="sje2jaHQRD8Xcxvx2MRO-38">
          <mxGeometry relative="1" as="geometry" />
        </mxCell>
        <mxCell id="sje2jaHQRD8Xcxvx2MRO-72" style="edgeStyle=orthogonalEdgeStyle;rounded=0;orthogonalLoop=1;jettySize=auto;html=1;exitX=0.5;exitY=1;exitDx=0;exitDy=0;entryX=0.5;entryY=0;entryDx=0;entryDy=0;" edge="1" parent="1" source="sje2jaHQRD8Xcxvx2MRO-40" target="sje2jaHQRD8Xcxvx2MRO-56">
          <mxGeometry relative="1" as="geometry" />
        </mxCell>
        <mxCell id="sje2jaHQRD8Xcxvx2MRO-40" value="" style="rounded=0;whiteSpace=wrap;html=1;" vertex="1" parent="1">
          <mxGeometry x="510" y="660" width="60" height="210" as="geometry" />
        </mxCell>
        <mxCell id="sje2jaHQRD8Xcxvx2MRO-41" value="" style="rounded=0;whiteSpace=wrap;html=1;" vertex="1" parent="1">
          <mxGeometry x="701" y="660" width="400" height="210" as="geometry" />
        </mxCell>
        <mxCell id="sje2jaHQRD8Xcxvx2MRO-42" value="&lt;div style=&quot;background-color: rgb(255, 255, 255); font-family: Consolas, &amp;quot;Courier New&amp;quot;, monospace; font-size: 18px; line-height: 24px; white-space: pre;&quot;&gt;LogBuffer&lt;/div&gt;" style="text;html=1;align=center;verticalAlign=middle;whiteSpace=wrap;rounded=0;" vertex="1" parent="1">
          <mxGeometry x="1050" y="920" width="60" height="30" as="geometry" />
        </mxCell>
        <mxCell id="sje2jaHQRD8Xcxvx2MRO-43" style="edgeStyle=none;curved=1;rounded=0;orthogonalLoop=1;jettySize=auto;html=1;exitX=1;exitY=0.5;exitDx=0;exitDy=0;entryX=-0.005;entryY=0.121;entryDx=0;entryDy=0;entryPerimeter=0;fontSize=12;startSize=8;endSize=8;" edge="1" parent="1" source="sje2jaHQRD8Xcxvx2MRO-37" target="sje2jaHQRD8Xcxvx2MRO-40">
          <mxGeometry relative="1" as="geometry" />
        </mxCell>
        <mxCell id="sje2jaHQRD8Xcxvx2MRO-45" value="count++" style="text;html=1;align=center;verticalAlign=middle;whiteSpace=wrap;rounded=0;" vertex="1" parent="1">
          <mxGeometry x="510" y="670" width="60" height="30" as="geometry" />
        </mxCell>
        <mxCell id="sje2jaHQRD8Xcxvx2MRO-46" value="count--" style="text;html=1;align=center;verticalAlign=middle;whiteSpace=wrap;rounded=0;" vertex="1" parent="1">
          <mxGeometry x="510" y="803" width="60" height="30" as="geometry" />
        </mxCell>
        <mxCell id="sje2jaHQRD8Xcxvx2MRO-47" value="Entry &lt;br&gt;0" style="rounded=0;whiteSpace=wrap;html=1;" vertex="1" parent="1">
          <mxGeometry x="717" y="720" width="40" height="120" as="geometry" />
        </mxCell>
        <mxCell id="sje2jaHQRD8Xcxvx2MRO-48" value="Entry 1" style="rounded=0;whiteSpace=wrap;html=1;" vertex="1" parent="1">
          <mxGeometry x="788" y="720" width="40" height="120" as="geometry" />
        </mxCell>
        <mxCell id="sje2jaHQRD8Xcxvx2MRO-49" value="Entry 2" style="rounded=0;whiteSpace=wrap;html=1;" vertex="1" parent="1">
          <mxGeometry x="864" y="720" width="40" height="120" as="geometry" />
        </mxCell>
        <mxCell id="sje2jaHQRD8Xcxvx2MRO-50" value="32Byte" style="text;html=1;align=center;verticalAlign=middle;whiteSpace=wrap;rounded=0;" vertex="1" parent="1">
          <mxGeometry x="708" y="720" width="60" height="30" as="geometry" />
        </mxCell>
        <mxCell id="sje2jaHQRD8Xcxvx2MRO-51" value="32Byte" style="text;html=1;align=center;verticalAlign=middle;whiteSpace=wrap;rounded=0;" vertex="1" parent="1">
          <mxGeometry x="778" y="720" width="60" height="30" as="geometry" />
        </mxCell>
        <mxCell id="sje2jaHQRD8Xcxvx2MRO-52" value="32Byte" style="text;html=1;align=center;verticalAlign=middle;whiteSpace=wrap;rounded=0;" vertex="1" parent="1">
          <mxGeometry x="854" y="720" width="60" height="30" as="geometry" />
        </mxCell>
        <mxCell id="sje2jaHQRD8Xcxvx2MRO-53" value="&lt;b&gt;...&lt;/b&gt;" style="rounded=0;whiteSpace=wrap;html=1;" vertex="1" parent="1">
          <mxGeometry x="946" y="720" width="40" height="120" as="geometry" />
        </mxCell>
        <mxCell id="sje2jaHQRD8Xcxvx2MRO-54" value="Entry 100" style="rounded=0;whiteSpace=wrap;html=1;" vertex="1" parent="1">
          <mxGeometry x="1026" y="720" width="40" height="120" as="geometry" />
        </mxCell>
        <mxCell id="sje2jaHQRD8Xcxvx2MRO-55" value="32Byte" style="text;html=1;align=center;verticalAlign=middle;whiteSpace=wrap;rounded=0;" vertex="1" parent="1">
          <mxGeometry x="1016" y="720" width="60" height="30" as="geometry" />
        </mxCell>
        <mxCell id="sje2jaHQRD8Xcxvx2MRO-56" value="is_full(0/1)" style="rounded=0;whiteSpace=wrap;html=1;" vertex="1" parent="1">
          <mxGeometry x="477.5" y="890" width="125" height="45" as="geometry" />
        </mxCell>
        <mxCell id="sje2jaHQRD8Xcxvx2MRO-57" value="Memcpy Log" style="text;html=1;align=center;verticalAlign=middle;whiteSpace=wrap;rounded=0;" vertex="1" parent="1">
          <mxGeometry x="190" y="679" width="120" height="30" as="geometry" />
        </mxCell>
        <mxCell id="sje2jaHQRD8Xcxvx2MRO-58" value="Read Log" style="text;html=1;align=center;verticalAlign=middle;whiteSpace=wrap;rounded=0;" vertex="1" parent="1">
          <mxGeometry x="186" y="815" width="120" height="30" as="geometry" />
        </mxCell>
        <mxCell id="sje2jaHQRD8Xcxvx2MRO-59" value="Priority queue (Max heap)" style="rounded=0;whiteSpace=wrap;html=1;" vertex="1" parent="1">
          <mxGeometry x="701" y="660" width="159" height="40" as="geometry" />
        </mxCell>
        <mxCell id="sje2jaHQRD8Xcxvx2MRO-60" value="High priority" style="text;html=1;align=center;verticalAlign=middle;whiteSpace=wrap;rounded=0;" vertex="1" parent="1">
          <mxGeometry x="707" y="808" width="60" height="30" as="geometry" />
        </mxCell>
        <mxCell id="sje2jaHQRD8Xcxvx2MRO-61" value="Low priority" style="text;html=1;align=center;verticalAlign=middle;whiteSpace=wrap;rounded=0;" vertex="1" parent="1">
          <mxGeometry x="1016" y="809" width="60" height="30" as="geometry" />
        </mxCell>
        <mxCell id="sje2jaHQRD8Xcxvx2MRO-68" value="Adjust to max heap" style="text;html=1;align=center;verticalAlign=middle;whiteSpace=wrap;rounded=0;" vertex="1" parent="1">
          <mxGeometry x="561" y="740" width="140" height="30" as="geometry" />
        </mxCell>
        <mxCell id="sje2jaHQRD8Xcxvx2MRO-80" style="rounded=0;orthogonalLoop=1;jettySize=auto;html=1;exitX=0;exitY=1;exitDx=0;exitDy=0;entryX=1;entryY=0;entryDx=0;entryDy=0;fontSize=15;fontStyle=1" edge="1" parent="1" source="sje2jaHQRD8Xcxvx2MRO-73" target="sje2jaHQRD8Xcxvx2MRO-74">
          <mxGeometry relative="1" as="geometry" />
        </mxCell>
        <mxCell id="sje2jaHQRD8Xcxvx2MRO-82" style="rounded=0;orthogonalLoop=1;jettySize=auto;html=1;exitX=1;exitY=1;exitDx=0;exitDy=0;entryX=0;entryY=0;entryDx=0;entryDy=0;fontSize=15;fontStyle=1" edge="1" parent="1" source="sje2jaHQRD8Xcxvx2MRO-73" target="sje2jaHQRD8Xcxvx2MRO-75">
          <mxGeometry relative="1" as="geometry" />
        </mxCell>
        <mxCell id="sje2jaHQRD8Xcxvx2MRO-73" value="40" style="ellipse;whiteSpace=wrap;html=1;aspect=fixed;fontSize=18;fontStyle=1" vertex="1" parent="1">
          <mxGeometry x="238" y="1040" width="40" height="40" as="geometry" />
        </mxCell>
        <mxCell id="sje2jaHQRD8Xcxvx2MRO-81" style="rounded=0;orthogonalLoop=1;jettySize=auto;html=1;exitX=0;exitY=1;exitDx=0;exitDy=0;entryX=0.5;entryY=0;entryDx=0;entryDy=0;fontSize=15;fontStyle=1" edge="1" parent="1" source="sje2jaHQRD8Xcxvx2MRO-74" target="sje2jaHQRD8Xcxvx2MRO-76">
          <mxGeometry relative="1" as="geometry" />
        </mxCell>
        <mxCell id="sje2jaHQRD8Xcxvx2MRO-83" style="rounded=0;orthogonalLoop=1;jettySize=auto;html=1;exitX=1;exitY=1;exitDx=0;exitDy=0;entryX=0.5;entryY=0;entryDx=0;entryDy=0;fontSize=15;fontStyle=1" edge="1" parent="1" source="sje2jaHQRD8Xcxvx2MRO-74" target="sje2jaHQRD8Xcxvx2MRO-77">
          <mxGeometry relative="1" as="geometry" />
        </mxCell>
        <mxCell id="sje2jaHQRD8Xcxvx2MRO-74" value="25" style="ellipse;whiteSpace=wrap;html=1;aspect=fixed;fontSize=18;fontStyle=1" vertex="1" parent="1">
          <mxGeometry x="158" y="1120" width="40" height="40" as="geometry" />
        </mxCell>
        <mxCell id="sje2jaHQRD8Xcxvx2MRO-84" style="rounded=0;orthogonalLoop=1;jettySize=auto;html=1;exitX=0;exitY=1;exitDx=0;exitDy=0;entryX=0.5;entryY=0;entryDx=0;entryDy=0;fontSize=15;fontStyle=1" edge="1" parent="1" source="sje2jaHQRD8Xcxvx2MRO-75" target="sje2jaHQRD8Xcxvx2MRO-78">
          <mxGeometry relative="1" as="geometry" />
        </mxCell>
        <mxCell id="sje2jaHQRD8Xcxvx2MRO-85" style="rounded=0;orthogonalLoop=1;jettySize=auto;html=1;exitX=1;exitY=1;exitDx=0;exitDy=0;entryX=0.5;entryY=0;entryDx=0;entryDy=0;fontSize=15;fontStyle=1" edge="1" parent="1" source="sje2jaHQRD8Xcxvx2MRO-75" target="sje2jaHQRD8Xcxvx2MRO-79">
          <mxGeometry relative="1" as="geometry" />
        </mxCell>
        <mxCell id="sje2jaHQRD8Xcxvx2MRO-75" value="30" style="ellipse;whiteSpace=wrap;html=1;aspect=fixed;fontSize=18;fontStyle=1" vertex="1" parent="1">
          <mxGeometry x="320" y="1120" width="40" height="40" as="geometry" />
        </mxCell>
        <mxCell id="sje2jaHQRD8Xcxvx2MRO-76" value="5" style="ellipse;whiteSpace=wrap;html=1;aspect=fixed;fontSize=18;fontStyle=1" vertex="1" parent="1">
          <mxGeometry x="118" y="1200" width="40" height="40" as="geometry" />
        </mxCell>
        <mxCell id="sje2jaHQRD8Xcxvx2MRO-77" value="15" style="ellipse;whiteSpace=wrap;html=1;aspect=fixed;fontSize=18;fontStyle=1" vertex="1" parent="1">
          <mxGeometry x="198" y="1200" width="40" height="40" as="geometry" />
        </mxCell>
        <mxCell id="sje2jaHQRD8Xcxvx2MRO-78" value="20" style="ellipse;whiteSpace=wrap;html=1;aspect=fixed;fontSize=18;fontStyle=1" vertex="1" parent="1">
          <mxGeometry x="278" y="1200" width="40" height="40" as="geometry" />
        </mxCell>
        <mxCell id="sje2jaHQRD8Xcxvx2MRO-79" value="10" style="ellipse;whiteSpace=wrap;html=1;aspect=fixed;fontSize=18;fontStyle=1" vertex="1" parent="1">
          <mxGeometry x="360" y="1200" width="40" height="40" as="geometry" />
        </mxCell>
        <mxCell id="sje2jaHQRD8Xcxvx2MRO-86" style="rounded=0;orthogonalLoop=1;jettySize=auto;html=1;exitX=0;exitY=1;exitDx=0;exitDy=0;entryX=1;entryY=0;entryDx=0;entryDy=0;fontSize=15;fontStyle=1" edge="1" parent="1" source="sje2jaHQRD8Xcxvx2MRO-88" target="sje2jaHQRD8Xcxvx2MRO-91">
          <mxGeometry relative="1" as="geometry" />
        </mxCell>
        <mxCell id="sje2jaHQRD8Xcxvx2MRO-87" style="rounded=0;orthogonalLoop=1;jettySize=auto;html=1;exitX=1;exitY=1;exitDx=0;exitDy=0;entryX=0;entryY=0;entryDx=0;entryDy=0;fontSize=15;fontStyle=1" edge="1" parent="1" source="sje2jaHQRD8Xcxvx2MRO-88" target="sje2jaHQRD8Xcxvx2MRO-94">
          <mxGeometry relative="1" as="geometry" />
        </mxCell>
        <mxCell id="sje2jaHQRD8Xcxvx2MRO-88" value="40" style="ellipse;whiteSpace=wrap;html=1;aspect=fixed;fontSize=18;fontStyle=1" vertex="1" parent="1">
          <mxGeometry x="637.5" y="1040" width="40" height="40" as="geometry" />
        </mxCell>
        <mxCell id="sje2jaHQRD8Xcxvx2MRO-89" style="rounded=0;orthogonalLoop=1;jettySize=auto;html=1;exitX=0;exitY=1;exitDx=0;exitDy=0;entryX=0.5;entryY=0;entryDx=0;entryDy=0;fontSize=15;fontStyle=1" edge="1" parent="1" source="sje2jaHQRD8Xcxvx2MRO-91" target="sje2jaHQRD8Xcxvx2MRO-95">
          <mxGeometry relative="1" as="geometry" />
        </mxCell>
        <mxCell id="sje2jaHQRD8Xcxvx2MRO-90" style="rounded=0;orthogonalLoop=1;jettySize=auto;html=1;exitX=1;exitY=1;exitDx=0;exitDy=0;entryX=0.5;entryY=0;entryDx=0;entryDy=0;fontSize=15;fontStyle=1" edge="1" parent="1" source="sje2jaHQRD8Xcxvx2MRO-91" target="sje2jaHQRD8Xcxvx2MRO-96">
          <mxGeometry relative="1" as="geometry" />
        </mxCell>
        <mxCell id="sje2jaHQRD8Xcxvx2MRO-91" value="35" style="ellipse;whiteSpace=wrap;html=1;aspect=fixed;fontSize=18;fontStyle=1" vertex="1" parent="1">
          <mxGeometry x="557.5" y="1120" width="40" height="40" as="geometry" />
        </mxCell>
        <mxCell id="sje2jaHQRD8Xcxvx2MRO-92" style="rounded=0;orthogonalLoop=1;jettySize=auto;html=1;exitX=0;exitY=1;exitDx=0;exitDy=0;entryX=0.5;entryY=0;entryDx=0;entryDy=0;fontSize=15;fontStyle=1" edge="1" parent="1" source="sje2jaHQRD8Xcxvx2MRO-94" target="sje2jaHQRD8Xcxvx2MRO-97">
          <mxGeometry relative="1" as="geometry" />
        </mxCell>
        <mxCell id="sje2jaHQRD8Xcxvx2MRO-93" style="rounded=0;orthogonalLoop=1;jettySize=auto;html=1;exitX=1;exitY=1;exitDx=0;exitDy=0;entryX=0.5;entryY=0;entryDx=0;entryDy=0;fontSize=15;fontStyle=1" edge="1" parent="1" source="sje2jaHQRD8Xcxvx2MRO-94" target="sje2jaHQRD8Xcxvx2MRO-98">
          <mxGeometry relative="1" as="geometry" />
        </mxCell>
        <mxCell id="sje2jaHQRD8Xcxvx2MRO-94" value="30" style="ellipse;whiteSpace=wrap;html=1;aspect=fixed;fontSize=18;fontStyle=1" vertex="1" parent="1">
          <mxGeometry x="719.5" y="1120" width="40" height="40" as="geometry" />
        </mxCell>
        <mxCell id="sje2jaHQRD8Xcxvx2MRO-102" style="rounded=0;orthogonalLoop=1;jettySize=auto;html=1;exitX=0;exitY=1;exitDx=0;exitDy=0;entryX=0.5;entryY=0;entryDx=0;entryDy=0;fontSize=15;fontStyle=1" edge="1" parent="1" source="sje2jaHQRD8Xcxvx2MRO-95" target="sje2jaHQRD8Xcxvx2MRO-99">
          <mxGeometry relative="1" as="geometry" />
        </mxCell>
        <mxCell id="sje2jaHQRD8Xcxvx2MRO-95" value="25" style="ellipse;whiteSpace=wrap;html=1;aspect=fixed;fontSize=18;fontStyle=1" vertex="1" parent="1">
          <mxGeometry x="517.5" y="1200" width="40" height="40" as="geometry" />
        </mxCell>
        <mxCell id="sje2jaHQRD8Xcxvx2MRO-96" value="15" style="ellipse;whiteSpace=wrap;html=1;aspect=fixed;fontSize=18;fontStyle=1" vertex="1" parent="1">
          <mxGeometry x="597.5" y="1200" width="40" height="40" as="geometry" />
        </mxCell>
        <mxCell id="sje2jaHQRD8Xcxvx2MRO-97" value="20" style="ellipse;whiteSpace=wrap;html=1;aspect=fixed;fontSize=18;fontStyle=1" vertex="1" parent="1">
          <mxGeometry x="677.5" y="1200" width="40" height="40" as="geometry" />
        </mxCell>
        <mxCell id="sje2jaHQRD8Xcxvx2MRO-98" value="10" style="ellipse;whiteSpace=wrap;html=1;aspect=fixed;fontSize=18;fontStyle=1" vertex="1" parent="1">
          <mxGeometry x="757" y="1200" width="40" height="40" as="geometry" />
        </mxCell>
        <mxCell id="sje2jaHQRD8Xcxvx2MRO-99" value="5" style="ellipse;whiteSpace=wrap;html=1;aspect=fixed;fontSize=18;fontStyle=1" vertex="1" parent="1">
          <mxGeometry x="477.5" y="1280" width="40" height="40" as="geometry" />
        </mxCell>
        <mxCell id="sje2jaHQRD8Xcxvx2MRO-104" value="" style="endArrow=classic;html=1;rounded=0;fontSize=15;strokeWidth=5;fontStyle=1" edge="1" parent="1">
          <mxGeometry width="50" height="50" relative="1" as="geometry">
            <mxPoint x="400" y="1150" as="sourcePoint" />
            <mxPoint x="510" y="1150" as="targetPoint" />
          </mxGeometry>
        </mxCell>
        <mxCell id="sje2jaHQRD8Xcxvx2MRO-106" value="Insert a log with priority 35" style="text;html=1;align=center;verticalAlign=middle;resizable=0;points=[];autosize=1;strokeColor=none;fillColor=none;fontSize=18;fontStyle=1" vertex="1" parent="1">
          <mxGeometry x="345" y="1075" width="230" height="40" as="geometry" />
        </mxCell>
        <mxCell id="sje2jaHQRD8Xcxvx2MRO-107" value="" style="endArrow=classic;html=1;rounded=0;fontSize=15;strokeWidth=5;fontStyle=1" edge="1" parent="1">
          <mxGeometry width="50" height="50" relative="1" as="geometry">
            <mxPoint x="820" y="1150" as="sourcePoint" />
            <mxPoint x="930" y="1149.82" as="targetPoint" />
          </mxGeometry>
        </mxCell>
        <mxCell id="sje2jaHQRD8Xcxvx2MRO-108" value="Get the highest priority log" style="text;whiteSpace=wrap;fontSize=18;fontStyle=1" vertex="1" parent="1">
          <mxGeometry x="757" y="1075" width="243" height="40" as="geometry" />
        </mxCell>
        <mxCell id="sje2jaHQRD8Xcxvx2MRO-109" style="rounded=0;orthogonalLoop=1;jettySize=auto;html=1;exitX=0;exitY=1;exitDx=0;exitDy=0;entryX=1;entryY=0;entryDx=0;entryDy=0;fontSize=15;fontStyle=1" edge="1" parent="1" source="sje2jaHQRD8Xcxvx2MRO-111" target="sje2jaHQRD8Xcxvx2MRO-114">
          <mxGeometry relative="1" as="geometry" />
        </mxCell>
        <mxCell id="sje2jaHQRD8Xcxvx2MRO-110" style="rounded=0;orthogonalLoop=1;jettySize=auto;html=1;exitX=1;exitY=1;exitDx=0;exitDy=0;entryX=0;entryY=0;entryDx=0;entryDy=0;fontSize=15;fontStyle=1" edge="1" parent="1" source="sje2jaHQRD8Xcxvx2MRO-111" target="sje2jaHQRD8Xcxvx2MRO-117">
          <mxGeometry relative="1" as="geometry" />
        </mxCell>
        <mxCell id="sje2jaHQRD8Xcxvx2MRO-111" value="35" style="ellipse;whiteSpace=wrap;html=1;aspect=fixed;fontSize=18;fontStyle=1" vertex="1" parent="1">
          <mxGeometry x="1040" y="1040" width="40" height="40" as="geometry" />
        </mxCell>
        <mxCell id="sje2jaHQRD8Xcxvx2MRO-112" style="rounded=0;orthogonalLoop=1;jettySize=auto;html=1;exitX=0;exitY=1;exitDx=0;exitDy=0;entryX=0.5;entryY=0;entryDx=0;entryDy=0;fontSize=15;fontStyle=1" edge="1" parent="1" source="sje2jaHQRD8Xcxvx2MRO-114" target="sje2jaHQRD8Xcxvx2MRO-118">
          <mxGeometry relative="1" as="geometry" />
        </mxCell>
        <mxCell id="sje2jaHQRD8Xcxvx2MRO-113" style="rounded=0;orthogonalLoop=1;jettySize=auto;html=1;exitX=1;exitY=1;exitDx=0;exitDy=0;entryX=0.5;entryY=0;entryDx=0;entryDy=0;fontSize=15;fontStyle=1" edge="1" parent="1" source="sje2jaHQRD8Xcxvx2MRO-114" target="sje2jaHQRD8Xcxvx2MRO-119">
          <mxGeometry relative="1" as="geometry" />
        </mxCell>
        <mxCell id="sje2jaHQRD8Xcxvx2MRO-114" value="25" style="ellipse;whiteSpace=wrap;html=1;aspect=fixed;fontSize=18;fontStyle=1" vertex="1" parent="1">
          <mxGeometry x="960" y="1120" width="40" height="40" as="geometry" />
        </mxCell>
        <mxCell id="sje2jaHQRD8Xcxvx2MRO-115" style="rounded=0;orthogonalLoop=1;jettySize=auto;html=1;exitX=0;exitY=1;exitDx=0;exitDy=0;entryX=0.5;entryY=0;entryDx=0;entryDy=0;fontSize=15;fontStyle=1" edge="1" parent="1" source="sje2jaHQRD8Xcxvx2MRO-117" target="sje2jaHQRD8Xcxvx2MRO-120">
          <mxGeometry relative="1" as="geometry" />
        </mxCell>
        <mxCell id="sje2jaHQRD8Xcxvx2MRO-116" style="rounded=0;orthogonalLoop=1;jettySize=auto;html=1;exitX=1;exitY=1;exitDx=0;exitDy=0;entryX=0.5;entryY=0;entryDx=0;entryDy=0;fontSize=15;fontStyle=1" edge="1" parent="1" source="sje2jaHQRD8Xcxvx2MRO-117" target="sje2jaHQRD8Xcxvx2MRO-121">
          <mxGeometry relative="1" as="geometry" />
        </mxCell>
        <mxCell id="sje2jaHQRD8Xcxvx2MRO-117" value="30" style="ellipse;whiteSpace=wrap;html=1;aspect=fixed;fontSize=18;fontStyle=1" vertex="1" parent="1">
          <mxGeometry x="1122" y="1120" width="40" height="40" as="geometry" />
        </mxCell>
        <mxCell id="sje2jaHQRD8Xcxvx2MRO-118" value="5" style="ellipse;whiteSpace=wrap;html=1;aspect=fixed;fontSize=18;fontStyle=1" vertex="1" parent="1">
          <mxGeometry x="920" y="1200" width="40" height="40" as="geometry" />
        </mxCell>
        <mxCell id="sje2jaHQRD8Xcxvx2MRO-119" value="15" style="ellipse;whiteSpace=wrap;html=1;aspect=fixed;fontSize=18;fontStyle=1" vertex="1" parent="1">
          <mxGeometry x="1000" y="1200" width="40" height="40" as="geometry" />
        </mxCell>
        <mxCell id="sje2jaHQRD8Xcxvx2MRO-120" value="20" style="ellipse;whiteSpace=wrap;html=1;aspect=fixed;fontSize=18;fontStyle=1" vertex="1" parent="1">
          <mxGeometry x="1080" y="1200" width="40" height="40" as="geometry" />
        </mxCell>
        <mxCell id="sje2jaHQRD8Xcxvx2MRO-121" value="10" style="ellipse;whiteSpace=wrap;html=1;aspect=fixed;fontSize=18;fontStyle=1" vertex="1" parent="1">
          <mxGeometry x="1162" y="1200" width="40" height="40" as="geometry" />
        </mxCell>
      </root>
    </mxGraphModel>
  </diagram>
  <diagram id="obk1uEck_6h3NekV7Swv" name="第 4 页">
    <mxGraphModel grid="1" page="1" gridSize="10" guides="1" tooltips="1" connect="1" arrows="1" fold="1" pageScale="1" pageWidth="827" pageHeight="1169" math="0" shadow="0">
      <root>
        <mxCell id="0" />
        <mxCell id="1" parent="0" />
        <mxCell id="hCDYxlgFyFylB7i2iMHB-1" value="Application Layer" style="rounded=0;whiteSpace=wrap;html=1;fontStyle=1;fontSize=16;" vertex="1" parent="1">
          <mxGeometry x="220" y="340" width="120" height="40" as="geometry" />
        </mxCell>
        <mxCell id="hCDYxlgFyFylB7i2iMHB-2" value="Storage Layer" style="rounded=0;whiteSpace=wrap;html=1;fontStyle=1;fontSize=16;" vertex="1" parent="1">
          <mxGeometry x="220" y="500" width="120" height="40" as="geometry" />
        </mxCell>
        <mxCell id="hCDYxlgFyFylB7i2iMHB-3" value="&lt;div style=&quot;background-color: rgb(255, 255, 255); font-family: Consolas, &amp;quot;Courier New&amp;quot;, monospace; line-height: 24px; white-space: pre;&quot;&gt;&lt;br&gt;&lt;/div&gt;" style="rounded=0;whiteSpace=wrap;html=1;fontStyle=1;fontSize=26;" vertex="1" parent="1">
          <mxGeometry x="460" y="300" width="720" height="320" as="geometry" />
        </mxCell>
        <mxCell id="hCDYxlgFyFylB7i2iMHB-4" style="edgeStyle=none;curved=1;rounded=0;orthogonalLoop=1;jettySize=auto;html=1;exitX=1;exitY=0.5;exitDx=0;exitDy=0;entryX=0;entryY=0.5;entryDx=0;entryDy=0;fontSize=12;startSize=8;endSize=8;fontStyle=1" edge="1" parent="1" source="hCDYxlgFyFylB7i2iMHB-1" target="hCDYxlgFyFylB7i2iMHB-6">
          <mxGeometry relative="1" as="geometry" />
        </mxCell>
        <mxCell id="hCDYxlgFyFylB7i2iMHB-5" style="edgeStyle=none;curved=1;rounded=0;orthogonalLoop=1;jettySize=auto;html=1;exitX=1;exitY=0.5;exitDx=0;exitDy=0;entryX=0;entryY=0.5;entryDx=0;entryDy=0;fontSize=12;startSize=8;endSize=8;fontStyle=1" edge="1" parent="1" source="hCDYxlgFyFylB7i2iMHB-2" target="hCDYxlgFyFylB7i2iMHB-7">
          <mxGeometry relative="1" as="geometry" />
        </mxCell>
        <mxCell id="hCDYxlgFyFylB7i2iMHB-6" value="write_index (production)" style="rounded=0;whiteSpace=wrap;html=1;fontStyle=1;fontSize=16;" vertex="1" parent="1">
          <mxGeometry x="490" y="330" width="120" height="60" as="geometry" />
        </mxCell>
        <mxCell id="hCDYxlgFyFylB7i2iMHB-7" value="read_index (consumption )" style="rounded=0;whiteSpace=wrap;html=1;fontStyle=1;fontSize=16;" vertex="1" parent="1">
          <mxGeometry x="490" y="490" width="120" height="60" as="geometry" />
        </mxCell>
        <mxCell id="hCDYxlgFyFylB7i2iMHB-8" style="edgeStyle=none;curved=1;rounded=0;orthogonalLoop=1;jettySize=auto;html=1;exitX=1;exitY=0.5;exitDx=0;exitDy=0;entryX=0;entryY=0.5;entryDx=0;entryDy=0;fontSize=12;startSize=8;endSize=8;fontStyle=1" edge="1" parent="1" source="hCDYxlgFyFylB7i2iMHB-9" target="hCDYxlgFyFylB7i2iMHB-10">
          <mxGeometry relative="1" as="geometry" />
        </mxCell>
        <mxCell id="hCDYxlgFyFylB7i2iMHB-9" value="" style="rounded=0;whiteSpace=wrap;html=1;fontStyle=1" vertex="1" parent="1">
          <mxGeometry x="660" y="335" width="60" height="210" as="geometry" />
        </mxCell>
        <mxCell id="hCDYxlgFyFylB7i2iMHB-10" value="" style="rounded=0;whiteSpace=wrap;html=1;fontStyle=1" vertex="1" parent="1">
          <mxGeometry x="770" y="350" width="380" height="180" as="geometry" />
        </mxCell>
        <mxCell id="hCDYxlgFyFylB7i2iMHB-11" value="&lt;div style=&quot;background-color: rgb(255, 255, 255); font-family: Consolas, &amp;quot;Courier New&amp;quot;, monospace; line-height: 24px; white-space: pre;&quot;&gt;LogBuffer&lt;/div&gt;" style="text;html=1;align=center;verticalAlign=middle;whiteSpace=wrap;rounded=0;fontStyle=1;fontSize=19;" vertex="1" parent="1">
          <mxGeometry x="480" y="590" width="60" height="30" as="geometry" />
        </mxCell>
        <mxCell id="hCDYxlgFyFylB7i2iMHB-12" style="edgeStyle=none;curved=1;rounded=0;orthogonalLoop=1;jettySize=auto;html=1;exitX=1;exitY=0.5;exitDx=0;exitDy=0;entryX=-0.005;entryY=0.121;entryDx=0;entryDy=0;entryPerimeter=0;fontSize=12;startSize=8;endSize=8;fontStyle=1" edge="1" parent="1" source="hCDYxlgFyFylB7i2iMHB-6" target="hCDYxlgFyFylB7i2iMHB-9">
          <mxGeometry relative="1" as="geometry" />
        </mxCell>
        <mxCell id="hCDYxlgFyFylB7i2iMHB-13" style="edgeStyle=none;curved=1;rounded=0;orthogonalLoop=1;jettySize=auto;html=1;exitX=1;exitY=0.5;exitDx=0;exitDy=0;fontSize=12;startSize=8;endSize=8;entryX=0;entryY=0.5;entryDx=0;entryDy=0;fontStyle=1" edge="1" parent="1" source="hCDYxlgFyFylB7i2iMHB-7" target="hCDYxlgFyFylB7i2iMHB-15">
          <mxGeometry relative="1" as="geometry">
            <mxPoint x="650" y="520" as="targetPoint" />
          </mxGeometry>
        </mxCell>
        <mxCell id="hCDYxlgFyFylB7i2iMHB-14" value="count++" style="text;html=1;align=center;verticalAlign=middle;whiteSpace=wrap;rounded=0;fontStyle=1;fontSize=15;" vertex="1" parent="1">
          <mxGeometry x="660" y="350" width="60" height="30" as="geometry" />
        </mxCell>
        <mxCell id="hCDYxlgFyFylB7i2iMHB-15" value="count--" style="text;html=1;align=center;verticalAlign=middle;whiteSpace=wrap;rounded=0;fontStyle=1;fontSize=15;" vertex="1" parent="1">
          <mxGeometry x="660" y="505" width="60" height="30" as="geometry" />
        </mxCell>
        <mxCell id="hCDYxlgFyFylB7i2iMHB-16" value="Entry &lt;br&gt;0" style="rounded=0;whiteSpace=wrap;html=1;fontStyle=1;fontSize=16;" vertex="1" parent="1">
          <mxGeometry x="800" y="380" width="40" height="120" as="geometry" />
        </mxCell>
        <mxCell id="hCDYxlgFyFylB7i2iMHB-17" value="Entry 1" style="rounded=0;whiteSpace=wrap;html=1;fontStyle=1;fontSize=16;" vertex="1" parent="1">
          <mxGeometry x="880" y="380" width="40" height="120" as="geometry" />
        </mxCell>
        <mxCell id="hCDYxlgFyFylB7i2iMHB-18" value="Entry 2" style="rounded=0;whiteSpace=wrap;html=1;fontStyle=1;fontSize=16;" vertex="1" parent="1">
          <mxGeometry x="950" y="380" width="40" height="120" as="geometry" />
        </mxCell>
        <mxCell id="hCDYxlgFyFylB7i2iMHB-19" value="&lt;span&gt;...&lt;/span&gt;" style="rounded=0;whiteSpace=wrap;html=1;fontStyle=1;fontSize=16;" vertex="1" parent="1">
          <mxGeometry x="1020" y="380" width="40" height="120" as="geometry" />
        </mxCell>
        <mxCell id="hCDYxlgFyFylB7i2iMHB-20" value="Entry 10" style="rounded=0;whiteSpace=wrap;html=1;fontStyle=1;fontSize=16;" vertex="1" parent="1">
          <mxGeometry x="1090" y="380" width="40" height="120" as="geometry" />
        </mxCell>
        <mxCell id="hCDYxlgFyFylB7i2iMHB-21" value="is_full(0/1)" style="rounded=0;whiteSpace=wrap;html=1;fontStyle=1;fontSize=16;" vertex="1" parent="1">
          <mxGeometry x="840" y="550" width="200" height="45" as="geometry" />
        </mxCell>
        <mxCell id="hCDYxlgFyFylB7i2iMHB-22" value="Memcpy Log" style="text;html=1;align=center;verticalAlign=middle;whiteSpace=wrap;rounded=0;fontStyle=1;fontSize=18;" vertex="1" parent="1">
          <mxGeometry x="340" y="335" width="120" height="30" as="geometry" />
        </mxCell>
        <mxCell id="hCDYxlgFyFylB7i2iMHB-23" value="Read Log" style="text;html=1;align=center;verticalAlign=middle;whiteSpace=wrap;rounded=0;fontStyle=1;fontSize=18;" vertex="1" parent="1">
          <mxGeometry x="340" y="495" width="120" height="30" as="geometry" />
        </mxCell>
      </root>
    </mxGraphModel>
  </diagram>
</mxfile>
